<svg width="60" height="60" viewBox="0 0 60 60" fill="none" xmlns="http://www.w3.org/2000/svg">
<circle cx="30" cy="30" r="29" stroke="#105053" stroke-width="2"/>
<path d="M36.424 42H21.576V41.232C24.584 38.3307 27.272 35.3227 29.64 32.208C32.0293 29.072 33.224 26.5547 33.224 24.656C33.224 22.6933 32.0933 21.712 29.832 21.712C28.872 21.712 27.8587 22.064 26.792 22.768C25.7467 23.4507 24.904 24.272 24.264 25.232L23.56 24.656C24.3493 23.12 25.448 21.8933 26.856 20.976C28.2853 20.0587 30.0027 19.6 32.008 19.6C33.288 19.6 34.3227 19.9627 35.112 20.688C35.9013 21.4133 36.296 22.544 36.296 24.08C36.296 26.0213 35.528 27.984 33.992 29.968C33.1813 31.0133 32.392 31.952 31.624 32.784C30.8773 33.616 29.832 34.736 28.488 36.144C27.1653 37.5307 26.0773 38.7147 25.224 39.696H32.84C33.9707 39.696 34.8987 39.344 35.624 38.64C36.3707 37.936 36.744 37.2213 36.744 36.496L37.64 36.688L36.424 42Z" fill="#105053"/>
</svg>
