<svg width="60" height="60" viewBox="0 0 60 60" fill="none" xmlns="http://www.w3.org/2000/svg">
<circle cx="30" cy="30" r="29" stroke="#105053" stroke-width="2"/>
<path d="M35.344 23.184C35.344 25.2747 33.6373 27.2373 30.224 29.072L30.288 29.2C30.9493 28.9013 31.568 28.752 32.144 28.752C33.7013 28.752 34.9707 29.2427 35.952 30.224C36.9547 31.184 37.456 32.5493 37.456 34.32C37.456 36.752 36.5493 38.7147 34.736 40.208C32.9227 41.7013 30.8 42.448 28.368 42.448C27.1307 42.448 26.096 42.2987 25.264 42C24.4533 41.7227 23.632 41.2107 22.8 40.464L23.312 37.072H24.144C24.4427 38.3093 24.912 39.2587 25.552 39.92C26.2133 40.5813 27.376 40.912 29.04 40.912C30.7253 40.912 32.048 40.4427 33.008 39.504C33.968 38.544 34.448 37.264 34.448 35.664C34.448 34.064 34.0427 32.8053 33.232 31.888C32.4213 30.9493 31.248 30.48 29.712 30.48C28.752 30.48 27.8773 30.5867 27.088 30.8V29.904L28.496 29.136C29.84 28.4747 30.7573 27.7707 31.248 27.024C31.76 26.256 32.016 25.36 32.016 24.336C32.016 22.6293 30.9493 21.776 28.816 21.776C27.5573 21.776 26.3733 22.2453 25.264 23.184C24.7093 23.6533 24.2827 24.0373 23.984 24.336L23.376 23.696C25.0613 20.9653 27.5787 19.6 30.928 19.6C32.3147 19.6 33.392 19.9413 34.16 20.624C34.9493 21.2853 35.344 22.1387 35.344 23.184Z" fill="#105053"/>
</svg>
