<svg width="60" height="60" viewBox="0 0 60 60" fill="none" xmlns="http://www.w3.org/2000/svg">
<circle cx="30" cy="30" r="29" stroke="#105053" stroke-width="2"/>
<path d="M31.688 33.168V22.416C28.2107 27.4933 25.864 31.0453 24.648 33.072V33.2L31.688 33.168ZM37.192 42H29.064V41.104H30.152C30.792 41.104 31.208 40.976 31.4 40.72C31.592 40.464 31.688 40.1013 31.688 39.632V35.216H21.48V34.608C22.7813 32.496 24.6267 29.8827 27.016 26.768C29.4053 23.632 30.9627 21.5627 31.688 20.56C32.648 20.56 33.3947 20.0907 33.928 19.152L34.376 19.024V33.168C36.7867 33.168 38.0987 32.5707 38.312 31.376L38.92 31.504L38.024 35.216H34.376V39.632C34.376 40.1013 34.4827 40.464 34.696 40.72C34.9093 40.976 35.336 41.104 35.976 41.104H37.192V42Z" fill="#105053"/>
</svg>
