<svg width="60" height="60" viewBox="0 0 60 60" fill="none" xmlns="http://www.w3.org/2000/svg">
<circle cx="30" cy="30" r="29" stroke="#105053" stroke-width="2"/>
<path d="M22.6 40.272L23.88 36.816H24.712C25.2453 38.7787 26.1413 39.9947 27.4 40.464C27.976 40.6773 28.68 40.784 29.512 40.784C31.0907 40.784 32.3813 40.2507 33.384 39.184C34.3867 38.1173 34.888 36.6453 34.888 34.768C34.888 33.424 34.376 32.176 33.352 31.024C32.328 29.8507 31.0693 29.264 29.576 29.264C28.104 29.264 26.4187 30.0533 24.52 31.632H23.752L24.456 19.92H31.944C32.968 19.92 33.6933 19.8133 34.12 19.6C34.568 19.3653 34.8667 19.0453 35.016 18.64L35.592 18.768L34.76 22.608H26.12L25.736 28.944H25.864C26.9307 28.1973 27.816 27.7067 28.52 27.472C29.2453 27.216 30.1307 27.088 31.176 27.088C32.8827 27.088 34.376 27.8027 35.656 29.232C36.936 30.64 37.576 32.208 37.576 33.936C37.576 36.5387 36.6693 38.608 34.856 40.144C33.0427 41.68 30.8987 42.448 28.424 42.448C27.1867 42.448 26.1413 42.2773 25.288 41.936C24.4347 41.5947 23.5387 41.04 22.6 40.272Z" fill="#105053"/>
</svg>
