<svg width="60" height="60" viewBox="0 0 60 60" fill="none" xmlns="http://www.w3.org/2000/svg">
<circle cx="30" cy="30" r="29" fill="#105053" stroke="#105053" stroke-width="2"/>
<path d="M31.408 35.664L29.872 36.24L29.232 19.984L31.984 19.024L31.408 35.664ZM32.176 40.752C32.176 41.2427 31.9733 41.6587 31.568 42C31.1627 42.3413 30.7147 42.512 30.224 42.512C29.7547 42.512 29.3813 42.3413 29.104 42C28.848 41.6587 28.72 41.2533 28.72 40.784C28.72 40.3147 28.9227 39.8987 29.328 39.536C29.7333 39.1733 30.1707 38.992 30.64 38.992C31.1307 38.992 31.504 39.1627 31.76 39.504C32.0373 39.8453 32.176 40.2613 32.176 40.752Z" fill="white"/>
</svg>
