<svg width="30" height="30" viewBox="0 0 30 30" fill="none" xmlns="http://www.w3.org/2000/svg">
<g clip-path="url(#clip0_92_144)">
<path d="M15 0.46875C6.71371 0.46875 0 6.97266 0 15C0 23.0273 6.71371 29.5312 15 29.5312C23.2863 29.5312 30 23.0273 30 15C30 6.97266 23.2863 0.46875 15 0.46875ZM21.9556 10.3535C21.7319 12.6504 20.752 18.2285 20.256 20.8008C20.0444 21.8906 19.6331 22.2539 19.2339 22.2891C18.3629 22.3652 17.7036 21.7324 16.8569 21.1934C15.5383 20.3555 14.7883 19.834 13.5121 19.0137C12.0302 18.0703 12.9919 17.5488 13.8327 16.6992C14.0565 16.4766 17.8911 13.0957 17.9637 12.791C17.9758 12.75 17.9819 12.6094 17.8911 12.5332C17.8004 12.457 17.6734 12.4863 17.5827 12.5039C17.4496 12.5312 15.3407 13.8809 11.256 16.5527C10.6593 16.9512 10.1169 17.1445 9.62903 17.1328C9.09072 17.1211 8.0625 16.8398 7.29435 16.5996C6.35685 16.3066 5.60685 16.1484 5.67339 15.6445C5.70565 15.3828 6.07863 15.1152 6.79234 14.8418C11.1633 12.998 14.0786 11.7812 15.5383 11.1914C19.7056 9.51562 20.5706 9.22266 21.1331 9.21094C21.2601 9.21094 21.5323 9.24023 21.7137 9.38086C21.8321 9.48172 21.9076 9.62166 21.9254 9.77344C21.9581 9.96507 21.9683 10.1597 21.9556 10.3535Z" fill="white"/>
</g>
<defs>
<clipPath id="clip0_92_144">
<rect width="30" height="30" fill="white"/>
</clipPath>
</defs>
</svg>
