<svg width="30" height="30" viewBox="0 0 30 30" fill="none" xmlns="http://www.w3.org/2000/svg">
<g clip-path="url(#clip0_92_142)">
<path d="M26.0156 2.92382C25.2715 2.23827 22.2598 0.0527221 15.5449 0.0234253C15.5449 0.0234253 7.6289 -0.451184 3.77344 3.08788C1.6289 5.23241 0.873045 8.37889 0.791014 12.2754C0.708982 16.1719 0.609373 23.4726 7.64648 25.4531H7.65234L7.64648 28.4765C7.64648 28.4765 7.59961 29.7012 8.4082 29.9473C9.38086 30.2519 9.95508 29.3203 10.8867 28.3183C11.3965 27.7676 12.0996 26.959 12.6328 26.3437C17.4492 26.748 21.1465 25.8223 21.5684 25.6875C22.541 25.3711 28.043 24.668 28.9336 17.3672C29.8594 9.83202 28.4883 5.07421 26.0156 2.92382ZM26.8301 16.8164C26.0742 22.9101 21.6152 23.2969 20.7949 23.5605C20.4434 23.6719 17.1914 24.4805 13.1074 24.2168C13.1074 24.2168 10.0605 27.8906 9.11133 28.8457C8.80078 29.1562 8.46094 29.1269 8.46679 28.5117C8.46679 28.1074 8.49023 23.4902 8.49023 23.4902C8.48437 23.4902 8.48437 23.4902 8.49023 23.4902C2.52539 21.8379 2.87695 15.6211 2.9414 12.3691C3.00586 9.11718 3.62109 6.45116 5.4375 4.65819C8.70117 1.69921 15.4219 2.13866 15.4219 2.13866C21.0996 2.1621 23.8184 3.87303 24.4512 4.44725C26.543 6.24022 27.6094 10.5293 26.8301 16.8164ZM18.6855 12.082C18.709 12.5859 17.9531 12.6211 17.9297 12.1172C17.8652 10.8281 17.2617 10.2012 16.0195 10.1308C15.5156 10.1016 15.5625 9.34569 16.0605 9.37499C17.6953 9.46288 18.6035 10.4004 18.6855 12.082ZM19.875 12.7441C19.9336 10.2598 18.3809 8.31444 15.4336 8.09764C14.9355 8.06249 14.9883 7.30663 15.4863 7.34178C18.8848 7.58788 20.6953 9.92577 20.6309 12.7617C20.625 13.2656 19.8633 13.2422 19.875 12.7441ZM22.6289 13.5293C22.6348 14.0332 21.873 14.0391 21.873 13.5351C21.8379 8.75975 18.6562 6.15819 14.7949 6.12889C14.2969 6.12303 14.2969 5.37303 14.7949 5.37303C19.1133 5.40233 22.5879 8.38475 22.6289 13.5293ZM21.9668 19.2773V19.2891C21.334 20.4023 20.1504 21.6328 18.9316 21.2402L18.9199 21.2226C17.6836 20.8769 14.7715 19.3769 12.9316 17.9121C11.9824 17.1621 11.1152 16.2773 10.4473 15.4277C9.84375 14.6719 9.23437 13.7754 8.64258 12.6973C7.39453 10.4414 7.11914 9.43358 7.11914 9.43358C6.72656 8.21483 7.95117 7.03124 9.07031 6.39843H9.08203C9.62109 6.11718 10.1367 6.21093 10.4824 6.62694C10.4824 6.62694 11.209 7.49413 11.5195 7.92186C11.8125 8.3203 12.2051 8.95897 12.4102 9.31639C12.7676 9.95507 12.5449 10.6055 12.1934 10.875L11.4902 11.4375C11.1328 11.7246 11.1797 12.2578 11.1797 12.2578C11.1797 12.2578 12.2227 16.2012 16.1191 17.1973C16.1191 17.1973 16.6523 17.2441 16.9395 16.8867L17.502 16.1836C17.7715 15.832 18.4219 15.6094 19.0605 15.9668C19.9219 16.4531 21.0176 17.209 21.7441 17.8945C22.1543 18.2285 22.248 18.7383 21.9668 19.2773Z" fill="white"/>
</g>
<defs>
<clipPath id="clip0_92_142">
<rect width="30" height="30" fill="white"/>
</clipPath>
</defs>
</svg>
