<svg width="60" height="60" viewBox="0 0 60 60" fill="none" xmlns="http://www.w3.org/2000/svg">
<path d="M43.4583 38.7498C42.83 37.6123 42.6212 36.282 42.879 34.9998H15.6319C12.5269 34.9998 10.0098 37.517 10.0098 40.622V42.0662C10.0098 44.2982 10.8061 46.457 12.2555 48.1542C16.1712 52.7397 22.1362 55.0028 30.001 55.0028C30.9735 55.0028 31.9172 54.968 32.8315 54.8987C32.3992 53.693 32.3865 52.3622 32.8122 51.1392C31.914 51.2147 30.977 51.2528 30.001 51.2528C23.1551 51.2528 18.2405 49.3882 15.1072 45.719C14.2376 44.7005 13.7598 43.4055 13.7598 42.0662V40.622C13.7598 39.588 14.598 38.7498 15.6319 38.7498H43.4583ZM30.001 5.0116C36.9045 5.0116 42.501 10.608 42.501 17.5116C42.501 24.4152 36.9045 30.0115 30.001 30.0115C23.0973 30.0115 17.5009 24.4152 17.5009 17.5116C17.5009 10.608 23.0973 5.0116 30.001 5.0116ZM30.001 8.7616C25.1685 8.7616 21.2509 12.6791 21.2509 17.5116C21.2509 22.3441 25.1685 26.2615 30.001 26.2615C34.8335 26.2615 38.751 22.3441 38.751 17.5116C38.751 12.6791 34.8335 8.7616 30.001 8.7616ZM45.481 34.9872L46.6698 31.9757C47.276 30.4395 48.9715 29.642 50.5403 30.1555L51.618 30.508C53.4285 31.1005 54.9315 32.5232 54.9925 34.4297C55.2405 42.2072 48.8037 53.3862 41.9602 57.0675C40.2772 57.973 38.2895 57.374 36.8712 56.0895L36.0295 55.327C34.8078 54.2202 34.6527 52.3542 35.6755 51.0627L37.6752 48.5372C38.4007 47.621 39.592 47.211 40.7272 47.4865L43.9555 48.27C46.7132 46.445 48.1912 43.8792 48.3892 40.573L46.0988 38.163C45.2925 37.315 45.0515 36.0752 45.481 34.9872Z" fill="#105053"/>
</svg>
