<svg width="60" height="60" viewBox="0 0 60 60" fill="none" xmlns="http://www.w3.org/2000/svg">
<path d="M17.5 30.625C17.5 29.5895 18.3395 28.75 19.375 28.75C20.4105 28.75 21.25 29.5895 21.25 30.625C21.25 31.6605 20.4105 32.5 19.375 32.5C18.3395 32.5 17.5 31.6605 17.5 30.625ZM19.375 36.25C18.3395 36.25 17.5 37.0895 17.5 38.125C17.5 39.1605 18.3395 40 19.375 40C20.4105 40 21.25 39.1605 21.25 38.125C21.25 37.0895 20.4105 36.25 19.375 36.25ZM17.5 45.625C17.5 44.5895 18.3395 43.75 19.375 43.75C20.4105 43.75 21.25 44.5895 21.25 45.625C21.25 46.6605 20.4105 47.5 19.375 47.5C18.3395 47.5 17.5 46.6605 17.5 45.625ZM26.875 28.75C25.8395 28.75 25 29.5895 25 30.625C25 31.6605 25.8395 32.5 26.875 32.5H40.625C41.6605 32.5 42.5 31.6605 42.5 30.625C42.5 29.5895 41.6605 28.75 40.625 28.75H26.875ZM25 38.125C25 37.0895 25.8395 36.25 26.875 36.25H40.625C41.6605 36.25 42.5 37.0895 42.5 38.125C42.5 39.1605 41.6605 40 40.625 40H26.875C25.8395 40 25 39.1605 25 38.125ZM26.875 43.75C25.8395 43.75 25 44.5895 25 45.625C25 46.6605 25.8395 47.5 26.875 47.5H40.625C41.6605 47.5 42.5 46.6605 42.5 45.625C42.5 44.5895 41.6605 43.75 40.625 43.75H26.875ZM48.535 21.035L33.9625 6.465C33.925 6.42762 33.8827 6.3952 33.8407 6.36298C33.8095 6.33918 33.7788 6.3155 33.75 6.29C33.5725 6.13 33.3975 5.9725 33.2025 5.84C33.1393 5.79735 33.0702 5.7637 33.0012 5.73017C32.9612 5.71065 32.9212 5.69117 32.8825 5.67C32.8407 5.64647 32.7992 5.62243 32.7575 5.59833C32.622 5.51993 32.486 5.4412 32.3425 5.38C31.85 5.175 31.32 5.0725 30.7825 5.035C30.7332 5.03185 30.6845 5.0252 30.6355 5.01853C30.5677 5.00928 30.4997 5 30.43 5H15C12.24 5 10 7.24 10 10V50C10 52.76 12.24 55 15 55H45C47.76 55 50 52.76 50 50V24.57C50 23.245 49.4725 21.9725 48.535 21.035ZM46.25 50C46.25 50.6875 45.69 51.25 45 51.25H15C14.31 51.25 13.75 50.6875 13.75 50V10C13.75 9.3125 14.31 8.75 15 8.75H30V20C30 22.76 32.24 25 35 25H46.25V50ZM33.75 11.5525L43.445 21.25H35C34.31 21.25 33.75 20.6875 33.75 20V11.5525Z" fill="#105053"/>
</svg>
