<svg width="60" height="60" viewBox="0 0 60 60" fill="none" xmlns="http://www.w3.org/2000/svg">
<path d="M29.375 5C30.4105 5 31.25 5.83948 31.25 6.875V14.7622L36.5838 9.42847C37.316 8.69625 38.503 8.69625 39.2353 9.42847C39.9675 10.1607 39.9675 11.3479 39.2353 12.0801L31.25 20.0655V27.5H38.6845L46.6698 19.5147C47.402 18.7825 48.5892 18.7825 49.3215 19.5147C50.0537 20.2469 50.0537 21.4341 49.3215 22.1663L43.9878 27.5H51.875C52.9105 27.5 53.75 28.3395 53.75 29.375C53.75 30.4105 52.9105 31.25 51.875 31.25H43.9878L49.3215 36.5838C50.0537 37.316 50.0537 38.503 49.3215 39.2353C48.5892 39.9675 47.402 39.9675 46.6698 39.2353L38.6845 31.25H31.25V38.6845L39.2353 46.6698C39.9675 47.402 39.9675 48.5892 39.2353 49.3215C38.503 50.0537 37.316 50.0537 36.5838 49.3215L31.25 43.9878V51.875C31.25 52.9105 30.4105 53.75 29.375 53.75C28.3395 53.75 27.5 52.9105 27.5 51.875V43.9878L22.1663 49.3215C21.4341 50.0537 20.2469 50.0537 19.5147 49.3215C18.7825 48.5892 18.7825 47.402 19.5147 46.6698L27.5 38.6845V31.25H20.0655L12.0801 39.2353C11.3479 39.9675 10.1607 39.9675 9.42847 39.2353C8.69625 38.503 8.69625 37.316 9.42847 36.5838L14.7622 31.25H6.875C5.83948 31.25 5 30.4105 5 29.375C5 28.3395 5.83948 27.5 6.875 27.5H14.7622L9.42847 22.1663C8.69625 21.4341 8.69625 20.2469 9.42847 19.5147C10.1607 18.7825 11.3479 18.7825 12.0801 19.5147L20.0655 27.5H27.5V20.0655L19.5147 12.0801C18.7825 11.3479 18.7825 10.1607 19.5147 9.42847C20.2469 8.69625 21.4341 8.69625 22.1663 9.42847L27.5 14.7622V6.875C27.5 5.83948 28.3395 5 29.375 5Z" fill="#105053"/>
</svg>
