<svg width="60" height="60" viewBox="0 0 60 60" fill="none" xmlns="http://www.w3.org/2000/svg">
<path d="M20 40C21.3807 40 22.5 38.8807 22.5 37.5C22.5 36.1193 21.3807 35 20 35C18.6193 35 17.5 36.1193 17.5 37.5C17.5 38.8807 18.6193 40 20 40ZM42.4993 37.5C42.4993 38.8807 41.38 40 39.9992 40C38.6187 40 37.4992 38.8807 37.4992 37.5C37.4992 36.1193 38.6187 35 39.9992 35C41.38 35 42.4993 36.1193 42.4993 37.5ZM26.875 12.5C25.8395 12.5 25 13.3395 25 14.375C25 15.4105 25.8395 16.25 26.875 16.25H33.125C34.1605 16.25 35 15.4105 35 14.375C35 13.3395 34.1605 12.5 33.125 12.5H26.875ZM19.375 5C14.1973 5 9.99997 9.19733 9.99997 14.375V23.75H6.87455C5.839 23.75 4.99955 24.5895 4.99955 25.625C4.99955 26.6605 5.839 27.5 6.87455 27.5H9.99997V49.375C9.99997 51.7912 11.9587 53.75 14.375 53.75H18.125C20.5412 53.75 22.5 51.7912 22.5 49.375V46.25H37.5V49.375C37.5 51.7912 39.4588 53.75 41.875 53.75H45.625C48.0412 53.75 50 51.7912 50 49.375V27.5H53.0682C54.1037 27.5 54.9432 26.6605 54.9432 25.625C54.9432 24.5895 54.1037 23.75 53.0682 23.75H50V14.375C50 9.19733 45.8028 5 40.625 5H19.375ZM46.25 46.25V49.375C46.25 49.7202 45.9702 50 45.625 50H41.875C41.5298 50 41.25 49.7202 41.25 49.375V46.25H46.25ZM46.25 42.5H13.75V32.5H46.25V42.5ZM13.75 49.375V46.25H18.75V49.375C18.75 49.7202 18.4701 50 18.125 50H14.375C14.0298 50 13.75 49.7202 13.75 49.375ZM13.75 14.375C13.75 11.2684 16.2684 8.75 19.375 8.75H40.625C43.7315 8.75 46.25 11.2684 46.25 14.375V28.75H13.75V14.375Z" fill="#105053"/>
</svg>
