<svg width="60" height="60" viewBox="0 0 60 60" fill="none" xmlns="http://www.w3.org/2000/svg">
<path d="M13.75 20C13.75 16.5482 16.5482 13.75 20 13.75C23.4518 13.75 26.25 16.5482 26.25 20C26.25 23.4518 23.4518 26.25 20 26.25C16.5482 26.25 13.75 23.4518 13.75 20ZM20 10C14.4771 10 10 14.4771 10 20C10 25.5228 14.4771 30 20 30C25.5228 30 30 25.5228 30 20C30 14.4771 25.5228 10 20 10ZM38.75 22.5C38.75 20.4289 40.429 18.75 42.5 18.75C44.571 18.75 46.25 20.4289 46.25 22.5C46.25 24.5711 44.571 26.25 42.5 26.25C40.429 26.25 38.75 24.5711 38.75 22.5ZM42.5 15C38.3577 15 35 18.3579 35 22.5C35 26.6423 38.3577 30 42.5 30C46.6423 30 50 26.6423 50 22.5C50 18.3579 46.6423 15 42.5 15ZM35.621 47.5943C37.3767 48.308 39.6292 48.75 42.5025 48.75C48.2082 48.75 51.4667 47.0068 53.2447 44.8553C54.1075 43.811 54.5465 42.7567 54.7692 41.9487C54.8802 41.5452 54.9385 41.2 54.9687 40.9425C54.984 40.8135 54.9925 40.7052 54.997 40.6217C54.9993 40.58 55.0008 40.5443 55.0015 40.5148L55.0023 40.4757L55.0025 40.4598V40.4528V40.4465C55.0025 37.4385 52.564 35 49.556 35H35.449C35.3802 35 35.312 35.0013 35.2443 35.0038C36.229 36.0315 36.9467 37.3175 37.285 38.75H49.556C50.485 38.75 51.2395 39.4965 51.2523 40.4222C51.2515 40.4365 51.2493 40.4637 51.2448 40.5027C51.2335 40.5967 51.2088 40.7538 51.1538 40.953C51.0443 41.3505 50.8192 41.9032 50.354 42.4662C49.4757 43.529 47.4217 45 42.5025 45C40.0522 45 38.313 44.635 37.0755 44.1375C36.8078 45.1378 36.363 46.3445 35.621 47.5943ZM10.625 35C7.5184 35 5 37.5185 5 40.625V41.2528V41.2555L5.00003 41.262L5.00018 41.2778L5.00087 41.3193C5.0016 41.3515 5.00292 41.3928 5.00525 41.4428C5.0099 41.5423 5.01862 41.6762 5.03495 41.8395C5.06752 42.1652 5.13082 42.6125 5.25412 43.141C5.49988 44.194 5.99135 45.601 6.97958 47.0127C9.02665 49.9372 12.9295 52.5 20 52.5C27.0705 52.5 30.9733 49.9372 33.0205 47.0127C34.0088 45.601 34.5003 44.194 34.7458 43.141C34.8693 42.6125 34.9325 42.1652 34.965 41.8395C34.9815 41.6762 34.99 41.5423 34.9948 41.4428C34.997 41.3928 34.9985 41.3515 34.999 41.3193L34.9997 41.2778L35 41.262V41.2555V40.625C35 37.5185 32.4815 35 29.375 35H10.625ZM8.75117 41.268L8.75 41.2367V40.625C8.75 39.5895 9.58948 38.75 10.625 38.75H29.375C30.4105 38.75 31.25 39.5895 31.25 40.625V41.2365L31.2488 41.268C31.247 41.3055 31.243 41.3733 31.2337 41.4663C31.215 41.653 31.1758 41.9383 31.094 42.2888C30.9295 42.9935 30.6007 43.9303 29.9482 44.8623C28.7142 46.6253 26.0545 48.75 20 48.75C13.9455 48.75 11.2858 46.6253 10.0517 44.8623C9.39927 43.9303 9.07045 42.9935 8.90603 42.2888C8.82425 41.9383 8.785 41.653 8.76633 41.4663C8.75703 41.3733 8.75292 41.3055 8.75117 41.268Z" fill="#105053"/>
</svg>
