<svg width="60" height="60" viewBox="0 0 60 60" fill="none" xmlns="http://www.w3.org/2000/svg">
<path d="M26.3738 6.32972C28.4685 4.56327 31.5315 4.56327 33.6262 6.32975L50.5013 20.56C51.7685 21.6288 52.5 23.2023 52.5 24.8602V48.1347C52.5 50.551 50.5412 52.5097 48.125 52.5097H39.375C36.9588 52.5097 35 50.551 35 48.1347V35.617C35 35.272 34.7202 34.992 34.375 34.992H25.625C25.2798 34.992 25 35.272 25 35.617V48.1347C25 50.551 23.0412 52.5097 20.625 52.5097H11.875C9.45875 52.5097 7.5 50.551 7.5 48.1347V24.8602C7.5 23.2023 8.23138 21.6288 9.4988 20.56L26.3738 6.32972ZM31.2087 9.1965C30.5105 8.60768 29.4895 8.60768 28.7913 9.1965L11.9163 23.4268C11.4938 23.783 11.25 24.3075 11.25 24.8602V48.1347C11.25 48.48 11.5298 48.7597 11.875 48.7597H20.625C20.9702 48.7597 21.25 48.48 21.25 48.1347V35.617C21.25 33.2008 23.2088 31.242 25.625 31.242H34.375C36.7912 31.242 38.75 33.2008 38.75 35.617V48.1347C38.75 48.48 39.0298 48.7597 39.375 48.7597H48.125C48.4702 48.7597 48.75 48.48 48.75 48.1347V24.8602C48.75 24.3075 48.5062 23.783 48.0837 23.4268L31.2087 9.1965Z" fill="#105053"/>
</svg>
