<svg width="15" height="20" viewBox="0 0 15 20" fill="none" xmlns="http://www.w3.org/2000/svg">
<path d="M2.77209 0.438989L3.84868 0.0949794C4.8575 -0.227371 5.9353 0.293579 6.3674 1.31232L7.2271 3.33967C7.6018 4.22312 7.3939 5.26203 6.7131 5.90815L4.81881 7.70616C4.93569 8.7816 5.2972 9.8406 5.9033 10.8832C6.5095 11.9257 7.2665 12.7905 8.1744 13.4776L10.4496 12.7189C11.312 12.4313 12.2512 12.7618 12.7802 13.539L14.0125 15.3495C14.6275 16.2529 14.5169 17.4993 13.7538 18.2653L12.9361 19.0862C12.1222 19.9033 10.9597 20.1997 9.8843 19.8643C7.3454 19.0723 5.0111 16.7211 2.88132 12.8107C0.74845 8.8945 -0.00430012 5.57189 0.62307 2.84289C0.88707 1.69457 1.70458 0.780089 2.77209 0.438989Z" fill="white"/>
</svg>
