<svg width="134" height="23" viewBox="0 0 134 23" fill="none" xmlns="http://www.w3.org/2000/svg">
<path d="M0.73 22L10.09 0.999999H14.89L24.28 22H19.18L11.5 3.46H13.42L5.71 22H0.73ZM5.41 17.5L6.7 13.81H17.5L18.82 17.5H5.41ZM26.4588 22V0.999999H30.4788L42.8688 16.12H40.9187V0.999999H45.7188V22H41.7288L29.3088 6.88H31.2588V22H26.4588ZM60.8273 22.36C59.1673 22.36 57.6373 22.1 56.2373 21.58C54.8573 21.04 53.6473 20.28 52.6073 19.3C51.5873 18.32 50.7873 17.17 50.2073 15.85C49.6473 14.53 49.3673 13.08 49.3673 11.5C49.3673 9.92 49.6473 8.47 50.2073 7.15C50.7873 5.83 51.5973 4.68 52.6373 3.7C53.6773 2.72 54.8973 1.97 56.2973 1.45C57.6973 0.909999 59.2373 0.64 60.9173 0.64C62.7773 0.64 64.4473 0.949999 65.9273 1.57C67.4273 2.19 68.6873 3.09 69.7073 4.27L66.5873 7.15C65.8273 6.35 64.9973 5.76 64.0973 5.38C63.1973 4.98 62.2173 4.78 61.1573 4.78C60.1373 4.78 59.2073 4.94 58.3673 5.26C57.5273 5.58 56.7973 6.04 56.1773 6.64C55.5773 7.24 55.1073 7.95 54.7673 8.77C54.4473 9.59 54.2873 10.5 54.2873 11.5C54.2873 12.48 54.4473 13.38 54.7673 14.2C55.1073 15.02 55.5773 15.74 56.1773 16.36C56.7973 16.96 57.5173 17.42 58.3373 17.74C59.1773 18.06 60.0973 18.22 61.0973 18.22C62.0573 18.22 62.9873 18.07 63.8873 17.77C64.8073 17.45 65.6973 16.92 66.5573 16.18L69.3173 19.69C68.1773 20.55 66.8473 21.21 65.3273 21.67C63.8273 22.13 62.3273 22.36 60.8273 22.36ZM64.8773 19.06V11.17H69.3173V19.69L64.8773 19.06ZM88.2318 0.999999H93.0918V22H88.2318V0.999999ZM78.6918 22H73.8318V0.999999H78.6918V22ZM88.5918 13.39H78.3318V9.28H88.5918V13.39ZM102.53 9.46H112.64V13.24H102.53V9.46ZM102.89 18.1H114.32V22H98.0603V0.999999H113.93V4.9H102.89V18.1ZM118.187 22V0.999999H123.047V18.04H133.577V22H118.187Z" fill="white"/>
</svg>
