<svg width="61" height="60" viewBox="0 0 61 60" fill="none" xmlns="http://www.w3.org/2000/svg">
<path d="M44.8862 35.0005C47.9915 35.0005 50.5085 37.5175 50.5085 40.6227V42.0612C50.5085 44.297 49.7095 46.459 48.2557 48.1575C44.3322 52.7412 38.3642 55.0032 30.501 55.0032C22.6362 55.0032 16.6712 52.7405 12.7555 48.1547C11.306 46.4575 10.5098 44.2987 10.5098 42.0667V40.6227C10.5098 37.5175 13.0269 35.0005 16.1319 35.0005H44.8862ZM44.8862 38.7505H16.1319C15.098 38.7505 14.2598 39.5887 14.2598 40.6227V42.0667C14.2598 43.406 14.7375 44.7012 15.6072 45.7195C18.7404 49.3887 23.6551 51.2532 30.501 51.2532C37.3467 51.2532 42.2657 49.3887 45.4067 45.719C46.2792 44.6997 46.7585 43.4025 46.7585 42.0612V40.6227C46.7585 39.5887 45.9202 38.7505 44.8862 38.7505ZM30.501 5.01221C37.4045 5.01221 43.001 10.6087 43.001 17.5122C43.001 24.4158 37.4045 30.0122 30.501 30.0122C23.5973 30.0122 18.0009 24.4158 18.0009 17.5122C18.0009 10.6087 23.5973 5.01221 30.501 5.01221ZM30.501 8.76221C25.6685 8.76221 21.7509 12.6797 21.7509 17.5122C21.7509 22.3447 25.6685 26.2622 30.501 26.2622C35.3335 26.2622 39.251 22.3447 39.251 17.5122C39.251 12.6797 35.3335 8.76221 30.501 8.76221Z" fill="white"/>
</svg>
