<svg width="61" height="60" viewBox="0 0 61 60" fill="none" xmlns="http://www.w3.org/2000/svg">
<path d="M13.4248 5C10.4362 5 7.96935 7.33712 7.80805 10.3214L5.71345 49.0715C5.53932 52.2925 8.10435 55 11.3302 55H18.4139C21.6398 55 24.2048 52.2925 24.0307 49.0715L21.9361 10.3214C21.7748 7.33712 19.3079 5 16.3193 5H13.4248ZM11.5526 10.5238C11.6063 9.52905 12.4286 8.75 13.4248 8.75H16.3193C17.3155 8.75 18.1378 9.52905 18.1916 10.5238L20.2861 49.2737C20.3442 50.3475 19.4892 51.25 18.4139 51.25H11.3302C10.2549 51.25 9.39995 50.3475 9.45797 49.2737L11.5526 10.5238ZM24.2768 55C25.2653 53.9695 25.9837 52.6807 26.3222 51.25H29.247V40.625C29.247 38.2087 31.2057 36.25 33.622 36.25H43.622C46.0382 36.25 47.997 38.2087 47.997 40.625V51.25H49.872C50.9075 51.25 51.747 50.4105 51.747 49.375V19.2825L38.6437 31.3777C38.0965 31.883 37.3022 32.0162 36.62 31.7175C35.9377 31.419 35.497 30.7447 35.497 30V19.2825L25.4265 28.5782L25.1638 23.7174L36.1002 13.6222C36.6475 13.1171 37.4417 12.9837 38.124 13.2824C38.8062 13.5811 39.247 14.2552 39.247 15V25.7175L52.3502 13.6222C52.8975 13.1171 53.6917 12.9837 54.374 13.2824C55.0562 13.5811 55.497 14.2552 55.497 15V49.375C55.497 52.4815 52.9785 55 49.872 55H24.2768ZM32.997 40.625V51.25H44.247V40.625C44.247 40.2797 43.9672 40 43.622 40H33.622C33.2767 40 32.997 40.2797 32.997 40.625Z" fill="white"/>
</svg>
