<svg width="61" height="60" viewBox="0 0 61 60" fill="none" xmlns="http://www.w3.org/2000/svg">
<path d="M31.1017 7.41211C30.5157 7.41211 29.9925 7.68091 29.6487 8.10191L29.506 8.20996C24.145 6.58478 18.0798 7.87859 13.8399 12.0914C10.0686 15.8386 8.62157 21.0208 9.49892 25.869L9.46137 25.906L7.0685 28.2838C4.98775 30.351 4.98775 33.703 7.0685 35.7705C8.2909 36.985 9.95952 37.486 11.55 37.2735C11.7844 38.1393 12.2435 38.9573 12.9272 39.6368C13.8566 40.5603 15.0439 41.071 16.2587 41.1698C16.3577 42.377 16.8719 43.557 17.8015 44.4805C18.7738 45.4465 20.0283 45.9613 21.3013 46.0245C21.3652 47.289 21.8831 48.5353 22.8552 49.5013C24.7559 51.3898 27.7355 51.553 29.8227 49.9913L30.789 50.9515C32.88 53.029 36.2697 53.029 38.3607 50.9515C39.2867 50.0313 39.8025 48.8583 39.9082 47.6565C41.1155 47.5538 42.2942 47.0435 43.2185 46.125C44.1452 45.2043 44.659 44.0298 44.7607 42.827C45.9522 42.7158 47.1132 42.2068 48.026 41.2995C48.7415 40.5888 49.211 39.7263 49.4345 38.8163C51.0012 39.002 52.635 38.4978 53.8372 37.3033C55.918 35.2358 55.918 31.8838 53.8372 29.8165L51.7535 27.746L52.1817 26.0798C53.1125 22.4565 52.6445 18.6186 50.8705 15.3225C48.2517 10.4563 43.1537 7.42463 37.612 7.42463H33.5952C33.424 7.41631 33.252 7.41211 33.079 7.41211H31.1017ZM38.4122 19.7749L47.0715 28.3788L47.0812 28.389L47.1145 28.423L51.177 32.4595C51.7887 33.0673 51.7887 34.0525 51.177 34.66C50.5655 35.2678 49.574 35.2678 48.9622 34.66L44.8997 30.6235C44.1652 29.8938 42.9742 29.8938 42.2397 30.6235L42.199 30.664C41.4642 31.3938 41.4642 32.5773 42.199 33.307L45.366 36.4538C45.978 37.062 45.978 38.0483 45.366 38.6565C44.808 39.2108 43.931 39.2608 43.3185 38.8028C42.5667 38.2408 41.5127 38.317 40.8507 38.9813C40.189 39.6458 40.1227 40.6938 40.696 41.4348C41.167 42.044 41.1202 42.9238 40.5585 43.4818C39.992 44.0448 39.0972 44.0873 38.4835 43.6073C37.7367 43.023 36.6685 43.0843 35.9942 43.75C35.3197 44.4158 35.2515 45.4768 35.8347 46.2225C36.319 46.8415 36.2732 47.7393 35.7005 48.3083C35.0787 48.926 34.071 48.926 33.4492 48.3083L32.52 47.385L32.783 47.1235C34.8637 45.056 34.8637 41.7043 32.783 39.6368C31.8107 38.6708 30.5562 38.156 29.2832 38.0928C29.2195 36.8283 28.7015 35.582 27.7295 34.6163C26.8 33.6928 25.6127 33.1818 24.398 33.0833C24.299 31.876 23.7847 30.696 22.8552 29.7723C21.6328 28.5578 19.9642 28.0568 18.3736 28.2693C18.1392 27.4035 17.6802 26.5855 16.9964 25.906C15.9181 24.8346 14.4925 24.3184 13.0796 24.3576C12.7126 20.9257 13.8528 17.3649 16.5001 14.7345C18.9606 12.2897 22.2302 11.1385 25.4525 11.2811L21.7089 14.1174C19.1492 16.0567 18.6561 19.6998 20.6082 22.2498C22.5558 24.794 26.2012 25.2875 28.755 23.3525L33.477 19.7749H38.4122ZM23.9735 17.1064L31.8192 11.1621H33.079C33.2027 11.1621 33.3255 11.1654 33.4472 11.172C33.4805 11.1737 33.514 11.1746 33.5475 11.1746H37.612C41.7825 11.1746 45.6075 13.4561 47.5685 17.0996C48.8052 19.3978 49.1932 22.0458 48.678 24.5876L40.6477 16.5965C40.2945 16.2312 39.808 16.0249 39.3 16.0249H32.847C32.438 16.0249 32.0405 16.1586 31.7145 16.4054L26.4905 20.3635C25.5815 21.0521 24.279 20.8758 23.5858 19.9704C22.8971 19.0707 23.0704 17.7906 23.9735 17.1064ZM15.5874 36.9935C15.1676 36.5765 15.036 35.9815 15.1924 35.453C15.2639 35.2113 15.3956 34.9835 15.5874 34.793L17.9803 32.4155C18.5919 31.8078 19.5834 31.8078 20.195 32.4155C20.7996 33.0163 20.8065 33.986 20.2157 34.595L20.1944 34.6163L17.8015 36.9938L17.7809 37.0143C17.5935 37.1938 17.3722 37.3175 17.138 37.386C16.6059 37.5415 16.0072 37.4108 15.5874 36.9935ZM14.3592 28.5725C14.5479 28.7678 14.6753 29 14.7415 29.2453C14.8815 29.7648 14.7465 30.3423 14.3363 30.7498L11.9434 33.1273C11.3318 33.735 10.3402 33.735 9.72865 33.1273C9.11705 32.5198 9.11705 31.5345 9.72865 30.9268L12.1215 28.5493C12.7331 27.9415 13.7247 27.9415 14.3363 28.5493L14.3592 28.5725ZM27.73 46.858C27.538 47.049 27.3082 47.18 27.0645 47.2508C26.533 47.4058 25.9347 47.2748 25.5152 46.858C25.0959 46.4413 24.9641 45.847 25.12 45.3188C25.1914 45.0765 25.3231 44.8485 25.5152 44.6575L27.9082 42.2798C28.5197 41.6723 29.5115 41.6723 30.123 42.2798C30.7345 42.8875 30.7345 43.8728 30.123 44.4805L27.73 46.858ZM22.6764 41.8375C22.4847 42.028 22.2557 42.1588 22.0128 42.2298C21.4806 42.3855 20.8816 42.2548 20.4617 41.8375C20.0417 41.4203 19.9101 40.825 20.0669 40.2963C20.1358 40.0635 20.2605 39.844 20.441 39.6578L20.4623 39.6368L22.8552 37.2593L22.8758 37.2385C23.4889 36.6518 24.4647 36.6585 25.0693 37.2593C25.681 37.867 25.681 38.8523 25.0693 39.4598L22.6764 41.8375Z" fill="white"/>
</svg>
