<svg width="61" height="60" viewBox="0 0 61 60" fill="none" xmlns="http://www.w3.org/2000/svg">
<path d="M13.9362 15.0661C14.752 12.075 17.4687 10 20.569 10H32.646C35.078 10 37.329 11.2848 38.5657 13.3788L44.8362 23.9961L50.2917 25.3595C53.3525 26.1242 55.5 28.8742 55.5 32.0292V36.25C55.5 39.006 53.8785 41.383 51.5375 42.4795C50.6985 46.0732 47.4742 48.75 43.625 48.75C40.01 48.75 36.9462 46.389 35.8917 43.125H23.8581C22.8037 46.389 19.74 48.75 16.125 48.75C11.968 48.75 8.5401 45.628 8.05802 41.601C6.49782 40.3407 5.5 38.4117 5.5 36.25V30.625C5.5 27.1057 8.14442 24.2039 11.5547 23.7984L13.9362 15.0661ZM35.5955 39.375C36.1967 35.4812 39.5627 32.5 43.625 32.5C47.1555 32.5 50.1602 34.7517 51.281 37.8975C51.5782 37.4192 51.75 36.8547 51.75 36.25V32.0292C51.75 30.5952 50.774 29.3452 49.3825 28.9975L43.39 27.5H12.375C10.6491 27.5 9.25 28.899 9.25 30.625V36.25L9.25027 36.2925C10.6895 34.0135 13.2305 32.5 16.125 32.5C20.1872 32.5 23.5532 35.4812 24.1544 39.375H35.5955ZM28 23.75H40.3357L35.3367 15.2858C34.7747 14.334 33.7515 13.75 32.646 13.75H28V23.75ZM24.25 13.75H20.569C19.1597 13.75 17.9249 14.6932 17.5541 16.0527L15.4548 23.75H24.25V13.75ZM16.125 36.25C13.7087 36.25 11.75 38.2087 11.75 40.625C11.75 43.0412 13.7087 45 16.125 45C18.5412 45 20.5 43.0412 20.5 40.625C20.5 38.2087 18.5412 36.25 16.125 36.25ZM39.25 40.625C39.25 43.0412 41.2087 45 43.625 45C46.0412 45 48 43.0412 48 40.625C48 38.2087 46.0412 36.25 43.625 36.25C41.2087 36.25 39.25 38.2087 39.25 40.625Z" fill="white"/>
</svg>
